<svg width="300" height="300" viewBox="0 0 300 300" xmlns="http://www.w3.org/2000/svg">
  <defs>
    <linearGradient id="realGradient" x1="0%" y1="0%" x2="100%" y2="100%">
      <stop offset="0%" style="stop-color:#FFFFFF;stop-opacity:1" />
      <stop offset="100%" style="stop-color:#FEBE10;stop-opacity:1" />
    </linearGradient>
    <radialGradient id="realRadial" cx="50%" cy="50%" r="50%">
      <stop offset="0%" style="stop-color:#FFFFFF;stop-opacity:1" />
      <stop offset="100%" style="stop-color:#F0F0F0;stop-opacity:1" />
    </radialGradient>
  </defs>
  
  <!-- Jersey body -->
  <path d="M75 50 Q75 40 85 40 L215 40 Q225 40 225 50 L225 80 Q235 85 235 95 L235 180 Q235 190 225 190 L75 190 Q65 190 65 180 L65 95 Q65 85 75 80 Z" 
        fill="url(#realRadial)" stroke="#00529F" stroke-width="3"/>
  
  <!-- Sleeves -->
  <ellipse cx="55" cy="75" rx="25" ry="40" fill="url(#realRadial)" stroke="#00529F" stroke-width="2"/>
  <ellipse cx="245" cy="75" rx="25" ry="40" fill="url(#realRadial)" stroke="#00529F" stroke-width="2"/>
  
  <!-- Collar -->
  <ellipse cx="150" cy="50" rx="50" ry="15" fill="none" stroke="#00529F" stroke-width="4"/>
  
  <!-- Real Madrid crest area -->
  <circle cx="100" cy="80" r="20" fill="#FFFFFF" stroke="#FEBE10" stroke-width="3"/>
  <circle cx="100" cy="80" r="15" fill="#00529F"/>
  <text x="100" y="85" text-anchor="middle" fill="#FEBE10" font-family="Arial, sans-serif" font-size="10" font-weight="bold">RM</text>
  
  <!-- Crown symbol -->
  <path d="M95 65 L100 60 L105 65 L100 70 Z" fill="#FEBE10" stroke="#00529F" stroke-width="1"/>
  
  <!-- Sponsor area -->
  <rect x="120" y="110" width="60" height="20" fill="rgba(254, 190, 16, 0.3)" stroke="#00529F" stroke-width="1"/>
  <text x="150" y="125" text-anchor="middle" fill="#00529F" font-family="Arial, sans-serif" font-size="10">DEVBCN</text>
  
  <!-- Player number -->
  <text x="150" y="165" text-anchor="middle" fill="#00529F" font-family="Arial, sans-serif" font-size="36" font-weight="bold">7</text>
  
  <!-- Decorative elements -->
  <rect x="70" y="70" width="4" height="100" fill="#FEBE10" opacity="0.3"/>
  <rect x="226" y="70" width="4" height="100" fill="#FEBE10" opacity="0.3"/>
</svg>